<svg xmlns="http://www.w3.org/2000/svg" viewBox="0 0 120 120" width="32" height="32" role="img" aria-label="True aperture">
      
      <path d="M 10.00 60.00 Q 44.68 40.88 62.40 49.27 L 60.00 10.00 A 50 50 0 0 0 10.00 60.00 Z" fill="#0F6E56"></path><path d="M 60.00 110.00 Q 40.88 75.32 49.27 57.60 L 10.00 60.00 A 50 50 0 0 0 60.00 110.00 Z" fill="#0F6E56"></path><path d="M 110.00 60.00 Q 75.32 79.12 57.60 70.73 L 60.00 110.00 A 50 50 0 0 0 110.00 60.00 Z" fill="#0F6E56"></path><path d="M 60.00 10.00 Q 79.12 44.68 70.73 62.40 L 110.00 60.00 A 50 50 0 0 0 60.00 10.00 Z" fill="#0F6E56"></path>
      
      
    </svg>